<?xml version="1.0" encoding="iso-8859-1"?>
<!-- Generator: Adobe Illustrator 19.0.0, SVG Export Plug-In . SVG Version: 6.00 Build 0)  -->
<svg version="1.1" id="Capa_1" xmlns="http://www.w3.org/2000/svg" xmlns:xlink="http://www.w3.org/1999/xlink" x="0px" y="0px"
	 viewBox="0 0 365.519 365.519" style="enable-background:new 0 0 365.519 365.519;" xml:space="preserve">
<g>
	
		<linearGradient id="SVGID_1_" gradientUnits="userSpaceOnUse" x1="-56.0228" y1="524.1075" x2="-56.0228" y2="453.6575" gradientTransform="matrix(5.2245 0 0 -5.2245 517.507 2730.1626)">
		<stop  offset="0" style="stop-color:#00EFD1"/>
		<stop  offset="1" style="stop-color:#00ACEA"/>
	</linearGradient>
	<path style="fill:url(#SVGID_1_);" d="M351.772,26.45L215.413,0.327c-4.702-1.045-9.404,0.522-13.061,3.135
		c-3.657,3.135-5.747,7.314-5.747,12.016v236.147c-11.494-6.792-25.078-10.971-40.229-10.971c-39.706,0-71.576,27.69-71.576,62.171
		s31.869,62.694,71.575,62.694s71.576-27.69,71.576-62.171V137.731l118.073,21.42c4.702,1.045,9.404-0.522,13.061-3.135
		c3.657-3.135,5.747-7.314,5.747-12.016v-102.4C364.311,34.286,359.086,28.017,351.772,26.45z M156.376,334.172
		c-21.943,0-40.229-13.584-40.229-30.824s18.286-30.824,40.229-30.824s40.229,13.584,40.229,30.824S178.319,334.172,156.376,334.172
		z M332.964,124.67L227.951,105.34V34.809l105.012,20.376V124.67z"/>
	
		<linearGradient id="SVGID_2_" gradientUnits="userSpaceOnUse" x1="-84.3728" y1="524.1075" x2="-84.3728" y2="453.6575" gradientTransform="matrix(5.2245 0 0 -5.2245 517.507 2730.1626)">
		<stop  offset="0" style="stop-color:#00EFD1"/>
		<stop  offset="1" style="stop-color:#00ACEA"/>
	</linearGradient>
	<path style="fill:url(#SVGID_2_);" d="M16.36,64.066h120.686c8.882,0,15.673-6.792,15.673-15.673s-6.792-15.673-15.673-15.673
		H16.36c-8.882,0-15.673,6.792-15.673,15.673S7.478,64.066,16.36,64.066z"/>
	
		<linearGradient id="SVGID_3_" gradientUnits="userSpaceOnUse" x1="-84.3728" y1="524.1075" x2="-84.3728" y2="453.6575" gradientTransform="matrix(5.2245 0 0 -5.2245 517.507 2730.1626)">
		<stop  offset="0" style="stop-color:#00EFD1"/>
		<stop  offset="1" style="stop-color:#00ACEA"/>
	</linearGradient>
	<path style="fill:url(#SVGID_3_);" d="M16.36,126.76h120.686c8.882,0,15.673-6.792,15.673-15.673s-6.792-15.673-15.673-15.673
		H16.36c-8.882,0-15.673,6.792-15.673,15.673S7.478,126.76,16.36,126.76z"/>
	
		<linearGradient id="SVGID_4_" gradientUnits="userSpaceOnUse" x1="-84.3728" y1="524.1075" x2="-84.3728" y2="453.6575" gradientTransform="matrix(5.2245 0 0 -5.2245 517.507 2730.1626)">
		<stop  offset="0" style="stop-color:#00EFD1"/>
		<stop  offset="1" style="stop-color:#00ACEA"/>
	</linearGradient>
	<path style="fill:url(#SVGID_4_);" d="M152.719,173.78c0-8.882-6.792-15.673-15.673-15.673H16.36
		c-8.882,0-15.673,6.792-15.673,15.673s6.792,15.673,15.673,15.673h120.686C145.927,189.454,152.719,182.14,152.719,173.78z"/>
</g>
<g>
</g>
<g>
</g>
<g>
</g>
<g>
</g>
<g>
</g>
<g>
</g>
<g>
</g>
<g>
</g>
<g>
</g>
<g>
</g>
<g>
</g>
<g>
</g>
<g>
</g>
<g>
</g>
<g>
</g>
</svg>
